<?xml version="1.0" encoding="utf-8"?>
<!-- Generator: Adobe Illustrator 21.1.0, SVG Export Plug-In . SVG Version: 6.00 Build 0)  -->
<svg version="1.1" id="Layer_1" xmlns="http://www.w3.org/2000/svg" xmlns:xlink="http://www.w3.org/1999/xlink" x="0px" y="0px"
	 viewBox="0 0 156.7 150.1" style="enable-background:new 0 0 156.7 150.1;" xml:space="preserve">
<style type="text/css">
	.st0{opacity:0.99;fill:#FFFFFF;}
	.st1{fill:#FFFFFF;}
	.st2{fill:#F7941D;}
	.st3{fill:#00A651;}
	.st4{fill:#00AEEF;}
	.st5{fill:#7F53A2;}
	.st6{fill:#2E3192;}
	.st7{fill:#662D91;}
	.st8{fill:#F15A29;}
	.st9{fill:#ED1C24;}
</style>
<circle class="st1" cx="94" cy="33.1" r="24.4"/>
<circle class="st1" cx="40" cy="55.5" r="24.4"/>
<circle class="st1" cx="64.4" cy="111.4" r="24.4"/>
<circle class="st1" cx="114.7" cy="86.7" r="24.4"/>
<path d="M141.2,41.4c-6-11.8-14.8-21.2-26.2-28.3C103.5,6,90.9,2.6,77.3,2.9C63.3,3.2,50.7,7,39.5,14.3C28,21.8,19.4,31.8,13.7,44.5
	c-4.2,9.2-6.2,18.7-6.1,28.5c0.1,11.9,2.7,22.8,7.7,32.7c6,11.8,14.7,21.1,26.2,28.1c11.5,7,23.8,10.4,37,10.2
	c13.5-0.2,25.9-3.7,37-10.6c10.5-6.5,18.7-15.2,24.6-26.1c6-10.9,8.9-22.5,8.7-34.8C148.7,61.6,146.2,51.2,141.2,41.4z M39.4,64.5
	l-1.6-8.8L29.5,52l7.9-4.3l1-8.9l6.5,6.2l8.8-1.9l-3.9,8.1l4.5,7.8l-8.9-1.2L39.4,64.5z M63.4,125.8l-6,6.7l-1.6-8.8l-8.2-3.7
	l7.9-4.3l0.9-8.9l6.5,6.2l8.8-1.9l-3.9,8.1l4.5,7.8L63.4,125.8z M99.4,35.4l-6,6.7l-1.6-8.8l-8.2-3.7l7.9-4.3l0.9-8.9l6.5,6.2
	l8.8-1.9l-3.9,8.1l4.5,7.8L99.4,35.4z M124.2,89.8l-6,6.7l-1.6-8.8l-8.2-3.7l7.9-4.3l0.9-8.9l6.5,6.2l8.8-1.9l-3.9,8.1l4.5,7.8
	L124.2,89.8z"/>
</svg>
