<?xml version="1.0" standalone="no"?><!-- Generator: Gravit.io --><svg xmlns="http://www.w3.org/2000/svg" xmlns:xlink="http://www.w3.org/1999/xlink" style="isolation:isolate" viewBox="0 0 138 135" width="138" height="135"><path d=" M 13.396 65.19 C 13.396 34.001 39.005 8.68 70.548 8.68 C 102.091 8.68 127.7 34.001 127.7 65.19 C 127.7 96.379 102.091 121.7 70.548 121.7 C 39.005 121.7 13.396 96.379 13.396 65.19 Z " fill="rgb(255,255,255)"/><path d=" M 124.4 37.9 C 119.2 27.7 111.7 19.6 101.8 13.5 C 91.9 7.4 81.1 4.4 69.4 4.7 C 57.3 4.9 46.4 8.2 36.8 14.5 C 26.9 20.9 19.5 29.6 14.6 40.6 C 11 48.5 9.3 56.7 9.4 65.2 C 9.5 75.5 11.7 84.9 16.1 93.4 C 21.2 103.6 28.8 111.6 38.7 117.7 C 48.6 123.7 59.2 126.7 70.6 126.5 C 82.3 126.4 92.9 123.3 102.5 117.3 C 111.5 111.7 118.6 104.2 123.7 94.8 C 128.8 85.4 131.4 75.4 131.2 64.8 C 131 55.3 128.8 46.3 124.4 37.9 Z  M 36.7 57.8 L 35.3 50.2 L 28.2 47 L 35 43.3 L 35.8 35.6 L 41.4 40.9 L 49 39.3 L 45.7 46.3 L 49.6 53 L 41.9 52 L 36.7 57.8 L 36.7 57.8 Z  M 57.4 110.7 L 52.2 116.5 L 50.8 108.9 L 43.7 105.7 L 50.5 102 L 51.3 94.3 L 56.9 99.6 L 64.5 98 L 61.2 105 L 65.1 111.7 L 57.4 110.7 L 57.4 110.7 Z  M 88.4 32.7 L 83.2 38.5 L 81.8 30.9 L 74.7 27.7 L 81.5 24 L 82.3 16.3 L 87.9 21.6 L 95.5 20 L 92.2 27 L 96.1 33.7 L 88.4 32.7 L 88.4 32.7 Z  M 109.8 79.6 L 104.6 85.4 L 103.2 77.8 L 96.1 74.6 L 102.9 70.9 L 103.7 63.2 L 109.3 68.5 L 116.9 66.9 L 113.6 73.9 L 117.5 80.6 L 109.8 79.6 L 109.8 79.6 Z " fill="rgb(237,28,36)"/></svg>