<?xml version="1.0" encoding="utf-8"?>
<!-- Generator: Adobe Illustrator 21.1.0, SVG Export Plug-In . SVG Version: 6.00 Build 0)  -->
<svg version="1.1" id="Layer_1" xmlns="http://www.w3.org/2000/svg" xmlns:xlink="http://www.w3.org/1999/xlink" x="0px" y="0px"
	 viewBox="0 0 138 135" style="enable-background:new 0 0 138 135;" xml:space="preserve">
<style type="text/css">
	.st0{opacity:0.99;fill:#FFFFFF;}
	.st1{fill:#FFFFFF;}
	.st2{fill:#F7941D;}
	.st3{fill:#00A651;}
	.st4{fill:#00AEEF;}
	.st5{fill:#7F53A2;}
	.st6{fill:#2E3192;}
	.st7{fill:#662D91;}
	.st8{fill:#F15A29;}
	.st9{fill:#ED1C24;}
</style>
<path class="st6" d="M124.4,37.9c-5.2-10.2-12.7-18.3-22.6-24.4c-9.9-6.1-20.7-9.1-32.4-8.8c-12.1,0.2-23,3.5-32.6,9.8
	c-9.9,6.4-17.3,15.1-22.2,26.1c-3.6,7.9-5.3,16.1-5.2,24.6c0.1,10.3,2.3,19.7,6.7,28.2c5.1,10.2,12.7,18.2,22.6,24.3
	c9.9,6,20.5,9,31.9,8.8c11.7-0.1,22.3-3.2,31.9-9.2c9-5.6,16.1-13.1,21.2-22.5c5.1-9.4,7.7-19.4,7.5-30
	C131,55.3,128.8,46.3,124.4,37.9z M36.7,57.8l-1.4-7.6L28.2,47l6.8-3.7l0.8-7.7l5.6,5.3l7.6-1.6l-3.3,7l3.9,6.7l-7.7-1L36.7,57.8z
	 M57.4,110.7l-5.2,5.8l-1.4-7.6l-7.1-3.2l6.8-3.7l0.8-7.7l5.6,5.3l7.6-1.6l-3.3,7l3.9,6.7L57.4,110.7z M88.4,32.7l-5.2,5.8l-1.4-7.6
	l-7.1-3.2l6.8-3.7l0.8-7.7l5.6,5.3l7.6-1.6l-3.3,7l3.9,6.7L88.4,32.7z M109.8,79.6l-5.2,5.8l-1.4-7.6l-7.1-3.2l6.8-3.7l0.8-7.7
	l5.6,5.3l7.6-1.6l-3.3,7l3.9,6.7L109.8,79.6z"/>
</svg>
