<?xml version="1.0" standalone="no"?><!-- Generator: Gravit.io --><svg xmlns="http://www.w3.org/2000/svg" xmlns:xlink="http://www.w3.org/1999/xlink" style="isolation:isolate" viewBox="0 0 309.1 68.7" width="309.1" height="68.7"><path d=" M 18.257 28.032 C 18.257 16.505 27.793 7.147 39.538 7.147 C 51.284 7.147 60.819 16.505 60.819 28.032 C 60.819 39.559 51.284 48.917 39.538 48.917 C 27.793 48.917 18.257 39.559 18.257 28.032 Z " fill="rgb(255,255,255)"/><path d=" M 73.468 21.182 L 73.468 31.278 C 73.468 33.258 74.26 34.247 75.844 34.247 C 77.428 34.247 78.22 33.258 78.22 31.377 L 78.22 21.182 C 78.22 20.192 78.22 19.598 78.319 19.4 C 78.418 18.905 78.714 18.311 79.11 17.817 C 80.001 16.728 81.09 16.233 82.377 16.233 C 83.762 16.233 84.851 16.728 85.742 17.817 C 86.435 18.608 86.732 19.994 86.732 21.875 L 86.732 30.981 C 86.732 34.346 85.841 37.019 84.059 39.098 C 81.882 41.671 79.11 42.859 75.943 42.859 C 73.963 42.859 72.083 42.364 70.4 41.275 C 68.222 39.889 66.639 38.009 65.748 35.534 C 65.352 34.346 65.154 32.862 65.154 30.981 L 65.154 21.776 C 65.154 20.687 65.154 19.994 65.253 19.697 C 65.352 19.004 65.649 18.41 66.045 17.817 C 66.936 16.728 68.024 16.134 69.41 16.134 C 70.598 16.134 71.687 16.629 72.479 17.52 C 73.172 18.213 73.468 19.499 73.468 21.182 Z " fill="rgb(241,90,41)"/><path d=" M 94.65 24.25 L 92.374 24.25 C 91.087 24.25 90.097 23.953 89.305 23.261 C 88.415 22.568 88.019 21.578 88.019 20.291 C 88.019 19.598 88.217 18.905 88.613 18.213 C 89.008 17.52 89.503 17.025 90.196 16.827 C 90.889 16.53 92.374 16.431 94.848 16.431 L 103.361 16.431 C 105.439 16.431 106.825 16.53 107.419 16.827 C 108.112 17.124 108.607 17.619 109.102 18.213 C 109.498 18.905 109.696 19.598 109.696 20.291 C 109.696 21.479 109.201 22.469 108.31 23.36 C 107.617 23.953 106.528 24.25 105.043 24.25 L 103.064 24.25 L 103.064 37.118 C 103.064 38.504 102.866 39.592 102.371 40.384 C 101.579 41.671 100.391 42.265 98.907 42.265 C 97.422 42.265 96.234 41.671 95.442 40.483 C 94.947 39.79 94.65 38.603 94.65 37.118 L 94.65 24.25 L 94.65 24.25 Z " fill="rgb(0,166,81)"/><path d=" M 119.792 34.148 L 123.652 34.148 C 125.236 34.148 126.423 34.445 127.215 35.138 C 128.106 35.93 128.601 36.92 128.601 38.108 C 128.601 39.394 128.106 40.384 127.215 41.176 C 126.522 41.77 125.335 42.067 123.652 42.067 L 117.02 42.067 C 115.436 42.067 114.348 41.968 113.853 41.671 C 112.764 41.176 111.972 40.483 111.576 39.394 C 111.378 38.702 111.279 37.613 111.279 36.029 L 111.279 22.073 C 111.279 20.885 111.279 20.093 111.378 19.697 C 111.477 18.905 111.873 18.213 112.368 17.619 C 112.962 17.025 113.754 16.53 114.645 16.431 C 115.041 16.332 115.931 16.332 117.317 16.332 L 122.365 16.332 C 123.751 16.332 124.543 16.332 124.741 16.332 C 125.631 16.431 126.423 16.728 126.918 17.124 C 127.908 17.916 128.502 18.905 128.502 20.192 C 128.502 21.578 128.007 22.568 127.116 23.261 C 126.324 23.854 125.236 24.25 123.85 24.25 L 119.693 24.25 L 119.693 26.032 L 123.058 26.032 C 124.048 26.032 124.84 26.329 125.532 26.824 C 126.225 27.418 126.522 28.111 126.522 29.1 C 126.522 31.179 125.236 32.169 122.761 32.169 L 119.693 32.169 L 119.693 34.148 L 119.792 34.148 Z " fill="rgb(0,174,239)"/><path d=" M 148.001 32.169 L 149.981 35.336 C 150.575 36.227 150.773 37.118 150.773 38.108 C 150.773 39.295 150.377 40.285 149.585 41.077 C 148.793 41.869 147.704 42.265 146.516 42.265 C 145.032 42.265 143.844 41.572 143.052 40.285 L 139.489 34.445 L 139.489 37.91 C 139.489 39.098 139.093 40.087 138.301 40.978 C 137.509 41.77 136.519 42.265 135.332 42.265 C 133.847 42.265 132.758 41.77 131.966 40.681 C 131.273 39.79 130.976 38.603 130.976 37.019 L 130.976 21.182 C 130.976 17.916 132.758 16.332 136.222 16.332 L 141.567 16.332 C 143.349 16.332 145.032 16.827 146.516 17.916 C 148.001 18.905 149.189 20.291 149.882 21.875 C 150.377 23.063 150.674 24.349 150.674 25.636 C 150.773 27.913 149.882 30.09 148.001 32.169 Z " fill="rgb(102,45,145)"/><path d=" M 156.811 32.367 C 157.8 32.367 158.79 32.763 159.78 33.654 C 161.067 34.742 162.057 35.237 162.551 35.237 C 163.244 35.237 163.64 34.841 163.64 34.148 C 163.64 33.753 163.442 33.357 163.046 33.06 C 162.848 32.862 161.562 32.466 159.285 31.575 C 155.524 30.288 153.643 27.814 153.643 24.151 C 153.643 21.479 154.633 19.301 156.613 17.718 C 158.394 16.332 160.473 15.639 163.145 15.639 C 165.323 15.639 167.303 16.134 168.985 17.223 C 170.668 18.311 171.46 19.697 171.46 21.281 C 171.46 22.271 171.163 23.162 170.569 23.755 C 169.975 24.448 169.183 24.745 168.193 24.745 C 167.105 24.745 166.016 24.25 164.729 23.261 C 163.937 22.667 163.343 22.37 162.947 22.37 C 162.254 22.37 161.958 22.667 161.958 23.36 C 161.958 23.953 162.848 24.547 164.531 25.141 C 166.907 25.834 168.688 26.824 169.975 27.814 C 171.658 29.199 172.549 31.278 172.549 33.852 C 172.549 36.623 171.559 38.9 169.678 40.483 C 167.896 41.968 165.521 42.661 162.65 42.661 C 159.78 42.661 157.404 41.869 155.524 40.384 C 154.039 39.197 153.247 37.712 153.247 36.128 C 153.247 35.039 153.643 34.148 154.336 33.357 C 154.831 32.763 155.722 32.367 156.811 32.367 Z " fill="rgb(255,255,255)"/><path d=" M 183.634 34.841 L 183.634 37.316 C 183.634 38.702 183.337 39.889 182.645 40.78 C 181.853 41.77 180.863 42.265 179.477 42.265 C 177.893 42.265 176.706 41.572 175.914 40.285 C 175.518 39.691 175.32 38.999 175.221 38.306 C 175.221 38.009 175.122 37.316 175.122 36.227 L 175.122 21.281 C 175.122 19.697 175.518 18.41 176.31 17.619 C 177.201 16.728 178.289 16.332 179.774 16.332 L 183.337 16.332 C 185.614 16.332 187.297 16.53 188.287 16.827 C 190.266 17.421 191.85 18.509 193.038 20.192 C 194.225 21.776 194.819 23.656 194.819 25.636 C 194.819 27.517 194.225 29.298 193.137 30.882 C 191.256 33.555 188.583 34.841 185.02 34.841 L 183.634 34.841 Z " fill="rgb(255,255,255)"/><path d=" M 202.243 38.702 C 201.847 39.691 201.451 40.384 200.956 40.879 C 200.065 41.77 199.075 42.265 197.888 42.265 C 196.403 42.265 195.215 41.671 194.423 40.483 C 193.928 39.79 193.73 38.999 193.73 38.108 C 193.73 37.415 193.928 36.623 194.225 35.831 L 202.243 18.707 C 203.035 17.025 204.321 16.233 206.103 16.233 C 207.984 16.233 209.27 17.124 210.062 18.806 L 218.179 36.029 C 218.476 36.722 218.674 37.415 218.674 38.108 C 218.674 39.098 218.377 39.988 217.684 40.78 C 216.793 41.77 215.704 42.265 214.418 42.265 C 213.329 42.265 212.438 41.968 211.646 41.275 C 211.151 40.78 210.557 39.889 210.062 38.801 L 202.243 38.801 L 202.243 38.702 Z " fill="rgb(255,255,255)"/><path d=" M 232.234 15.639 C 235.401 15.639 238.272 16.629 240.845 18.806 C 242.924 20.489 243.914 22.172 243.914 23.953 C 243.914 25.438 243.32 26.626 242.033 27.418 C 241.34 27.913 240.549 28.111 239.658 28.111 C 238.965 28.111 238.272 27.913 237.678 27.616 C 237.381 27.517 236.787 26.824 235.698 25.735 C 234.709 24.646 233.521 24.151 232.036 24.151 C 230.65 24.151 229.463 24.646 228.473 25.636 C 227.483 26.626 227.087 27.814 227.087 29.199 C 227.087 30.585 227.582 31.773 228.473 32.763 C 229.463 33.753 230.551 34.247 232.036 34.247 C 233.224 34.247 234.313 33.852 235.303 33.06 C 235.896 32.466 236.49 31.872 237.084 31.278 C 237.777 30.684 238.569 30.387 239.559 30.387 C 240.746 30.387 241.736 30.783 242.528 31.575 C 243.419 32.367 243.815 33.357 243.815 34.544 C 243.815 36.128 242.924 37.712 241.043 39.295 C 238.47 41.572 235.5 42.661 232.036 42.661 C 229.958 42.661 227.978 42.166 226.097 41.275 C 223.722 40.186 221.841 38.504 220.455 36.326 C 219.07 34.148 218.377 31.773 218.377 29.1 C 218.377 25.24 219.861 21.875 222.732 19.103 C 225.503 16.926 228.572 15.639 232.234 15.639 Z " fill="rgb(255,255,255)"/><path d=" M 254.901 34.148 L 258.761 34.148 C 260.345 34.148 261.532 34.445 262.324 35.138 C 263.215 35.93 263.71 36.92 263.71 38.108 C 263.71 39.394 263.215 40.384 262.324 41.176 C 261.631 41.77 260.444 42.067 258.761 42.067 L 252.129 42.067 C 250.546 42.067 249.457 41.968 248.962 41.671 C 247.873 41.176 247.081 40.483 246.685 39.394 C 246.487 38.702 246.388 37.613 246.388 36.029 L 246.388 22.073 C 246.388 20.885 246.388 20.093 246.487 19.697 C 246.586 18.905 246.982 18.213 247.477 17.619 C 248.071 17.025 248.863 16.53 249.754 16.431 C 250.15 16.332 251.041 16.332 252.426 16.332 L 257.474 16.332 C 258.86 16.332 259.652 16.332 259.85 16.332 C 260.741 16.431 261.532 16.728 262.027 17.124 C 263.017 17.916 263.611 18.905 263.611 20.192 C 263.611 21.578 263.116 22.568 262.225 23.261 C 261.434 23.854 260.345 24.25 258.959 24.25 L 254.901 24.25 L 254.901 26.032 L 258.266 26.032 C 259.256 26.032 260.048 26.329 260.741 26.824 C 261.434 27.418 261.73 28.111 261.73 29.1 C 261.73 31.179 260.444 32.169 257.969 32.169 L 254.901 32.169 L 254.901 34.148 Z " fill="rgb(255,255,255)"/><path d=" M 269.253 32.367 C 270.243 32.367 271.233 32.763 272.222 33.654 C 273.509 34.742 274.499 35.237 274.994 35.237 C 275.687 35.237 276.083 34.841 276.083 34.148 C 276.083 33.753 275.885 33.357 275.489 33.06 C 275.291 32.862 274.004 32.466 271.728 31.575 C 267.966 30.288 266.086 27.814 266.086 24.151 C 266.086 21.479 267.075 19.301 269.055 17.718 C 270.837 16.332 272.915 15.639 275.588 15.639 C 277.765 15.639 279.745 16.134 281.428 17.223 C 283.11 18.311 283.902 19.697 283.902 21.281 C 283.902 22.271 283.605 23.162 283.011 23.755 C 282.418 24.448 281.626 24.745 280.636 24.745 C 279.547 24.745 278.458 24.25 277.172 23.261 C 276.38 22.667 275.786 22.37 275.39 22.37 C 274.697 22.37 274.4 22.667 274.4 23.36 C 274.4 23.953 275.291 24.547 276.974 25.141 C 279.349 25.834 281.131 26.824 282.418 27.814 C 284.1 29.199 284.991 31.278 284.991 33.852 C 284.991 36.623 284.001 38.9 282.121 40.483 C 280.339 41.968 277.963 42.661 275.093 42.661 C 272.222 42.661 269.847 41.869 267.966 40.384 C 266.482 39.197 265.69 37.712 265.69 36.128 C 265.69 35.039 266.086 34.148 266.778 33.357 C 267.273 32.763 268.164 32.367 269.253 32.367 Z " fill="rgb(255,255,255)"/><path d=" M 59.314 17.619 C 57.335 13.857 54.563 10.789 50.901 8.512 C 47.139 6.236 43.081 5.147 38.726 5.147 C 34.173 5.246 30.115 6.533 26.551 8.908 C 22.889 11.284 20.118 14.55 18.237 18.608 C 16.851 21.578 16.257 24.646 16.257 27.814 C 16.257 31.674 17.148 35.138 18.732 38.306 C 20.613 42.067 23.483 45.135 27.145 47.313 C 30.808 49.59 34.767 50.678 39.023 50.579 C 43.378 50.579 47.337 49.392 50.901 47.115 C 54.266 45.036 56.939 42.166 58.819 38.702 C 60.7 35.237 61.69 31.476 61.591 27.517 C 61.69 24.052 60.898 20.786 59.314 17.619 Z  M 26.452 25.042 L 25.958 22.172 L 23.285 20.984 L 25.859 19.598 L 26.155 16.728 L 28.234 18.707 L 31.105 18.114 L 29.818 20.786 L 31.303 23.261 L 28.432 22.865 L 26.452 25.042 Z  M 34.272 44.739 L 32.292 46.917 L 31.797 44.047 L 29.125 42.859 L 31.698 41.473 L 31.995 38.603 L 34.074 40.582 L 36.944 39.988 L 35.658 42.562 L 37.142 45.036 L 34.272 44.739 Z  M 45.853 15.639 L 43.873 17.817 L 43.378 14.946 L 40.706 13.758 L 43.279 12.373 L 43.576 9.502 L 45.655 11.482 L 48.525 10.888 L 47.238 13.461 L 48.723 15.936 L 45.853 15.639 Z  M 53.771 33.159 L 51.792 35.336 L 51.297 32.466 L 48.624 31.278 L 51.198 29.892 L 51.495 27.022 L 53.573 29.001 L 56.444 28.408 L 55.157 30.981 L 56.642 33.456 L 53.771 33.159 Z " fill="rgb(237,28,36)"/><g id="null"><g id="null"><path d=" M 88.712 50.579 C 88.712 50.777 88.514 50.876 88.316 50.876 L 86.039 50.876 L 86.039 61.467 C 86.039 61.665 85.841 61.764 85.643 61.764 L 83.565 61.764 C 83.367 61.764 83.169 61.566 83.169 61.467 L 83.169 50.876 L 80.892 50.876 C 80.694 50.876 80.496 50.678 80.496 50.579 L 80.496 48.6 C 80.496 48.402 80.694 48.204 80.892 48.204 L 88.415 48.204 C 88.712 48.204 88.811 48.402 88.811 48.6 L 88.811 50.579 L 88.712 50.579 Z " fill="rgb(255,255,255)"/><path d=" M 93.067 51.173 L 93.067 53.846 L 97.917 53.846 C 98.214 53.846 98.313 54.044 98.313 54.143 L 98.313 56.122 C 98.313 56.32 98.214 56.419 97.917 56.419 L 93.067 56.419 L 93.067 58.993 L 98.907 58.993 C 99.204 58.993 99.303 59.191 99.303 59.29 L 99.303 61.368 C 99.303 61.566 99.105 61.665 98.907 61.665 L 90.592 61.665 C 90.394 61.665 90.196 61.467 90.196 61.368 L 90.196 48.699 C 90.196 48.501 90.394 48.402 90.592 48.402 L 99.006 48.402 C 99.303 48.402 99.401 48.6 99.401 48.699 L 99.401 50.777 C 99.401 50.975 99.204 51.074 99.006 51.074 L 93.067 51.074 L 93.067 51.173 Z " fill="rgb(255,255,255)"/><path d=" M 113.853 55.132 L 119 61.269 C 119.198 61.566 119 61.764 118.703 61.764 L 115.931 61.764 C 115.832 61.764 115.634 61.665 115.634 61.665 L 111.972 57.112 L 111.774 57.31 L 111.774 57.31 C 111.576 57.508 111.378 57.805 111.18 58.003 L 111.18 61.467 C 111.18 61.665 110.982 61.764 110.784 61.764 L 108.607 61.764 C 108.31 61.764 108.211 61.566 108.211 61.467 L 108.211 48.6 C 108.211 48.402 108.409 48.204 108.607 48.204 L 110.784 48.204 C 110.982 48.204 111.18 48.402 111.18 48.6 L 111.18 53.945 C 112.665 52.064 114.249 50.183 115.733 48.402 C 115.733 48.402 116.03 48.303 116.03 48.303 L 118.703 48.303 C 119.099 48.303 119.198 48.6 119 48.798 L 113.853 55.132 Z " fill="rgb(255,255,255)"/><path d=" M 123.553 51.173 L 123.553 53.846 L 128.403 53.846 C 128.7 53.846 128.799 54.044 128.799 54.143 L 128.799 56.122 C 128.799 56.32 128.7 56.419 128.403 56.419 L 123.553 56.419 L 123.553 58.993 L 129.393 58.993 C 129.69 58.993 129.789 59.191 129.789 59.29 L 129.789 61.368 C 129.789 61.566 129.591 61.665 129.393 61.665 L 120.979 61.665 C 120.781 61.665 120.583 61.467 120.583 61.368 L 120.583 48.699 C 120.583 48.501 120.781 48.402 120.979 48.402 L 129.393 48.402 C 129.69 48.402 129.789 48.6 129.789 48.699 L 129.789 50.777 C 129.789 50.975 129.591 51.074 129.393 51.074 L 123.553 51.074 L 123.553 51.173 Z " fill="rgb(255,255,255)"/><path d=" M 138.994 50.777 C 138.994 50.975 138.796 51.074 138.598 51.074 L 136.321 51.074 L 136.321 61.368 C 136.321 61.566 136.222 61.665 135.926 61.665 L 133.847 61.665 C 133.55 61.665 133.451 61.467 133.451 61.368 L 133.451 51.074 L 131.174 51.074 C 130.976 51.074 130.778 50.975 130.778 50.777 L 130.778 48.897 C 130.778 48.699 130.976 48.501 131.174 48.501 L 138.499 48.501 C 138.796 48.501 138.895 48.699 138.895 48.897 L 138.895 50.777 L 138.994 50.777 Z " fill="rgb(255,255,255)"/><path d=" M 143.547 51.173 L 143.547 53.846 L 148.397 53.846 C 148.694 53.846 148.793 54.044 148.793 54.143 L 148.793 56.122 C 148.793 56.32 148.694 56.419 148.397 56.419 L 143.547 56.419 L 143.547 58.993 L 149.387 58.993 C 149.684 58.993 149.783 59.191 149.783 59.29 L 149.783 61.368 C 149.783 61.566 149.585 61.665 149.387 61.665 L 141.073 61.665 C 140.875 61.665 140.677 61.467 140.677 61.368 L 140.677 48.699 C 140.677 48.501 140.875 48.402 141.073 48.402 L 149.486 48.402 C 149.783 48.402 149.882 48.6 149.882 48.699 L 149.882 50.777 C 149.882 50.975 149.684 51.074 149.486 51.074 L 143.547 51.074 L 143.547 51.173 Z " fill="rgb(255,255,255)"/><path d=" M 171.46 55.033 C 171.46 58.399 169.183 61.863 164.828 61.863 C 160.374 61.863 158.196 58.399 158.196 55.033 C 158.196 51.668 160.374 48.204 164.828 48.204 C 169.183 48.204 171.46 51.668 171.46 55.033 Z  M 168.49 55.132 C 168.49 53.054 167.204 50.975 164.828 50.975 C 162.353 50.975 161.166 53.054 161.166 55.132 C 161.166 57.211 162.353 59.29 164.828 59.29 C 167.303 59.191 168.49 57.211 168.49 55.132 Z " fill="rgb(255,255,255)"/><path d=" M 187.792 50.579 C 187.792 50.777 187.594 50.876 187.396 50.876 L 185.119 50.876 L 185.119 61.467 C 185.119 61.665 184.921 61.764 184.723 61.764 L 182.645 61.764 C 182.447 61.764 182.249 61.566 182.249 61.467 L 182.249 50.876 L 179.972 50.876 C 179.774 50.876 179.576 50.678 179.576 50.579 L 179.576 48.6 C 179.576 48.402 179.774 48.204 179.972 48.204 L 187.495 48.204 C 187.792 48.204 187.891 48.402 187.891 48.6 L 187.891 50.579 L 187.792 50.579 Z " fill="rgb(255,255,255)"/><path d=" M 192.147 51.173 L 192.147 53.846 L 196.997 53.846 C 197.294 53.846 197.393 54.044 197.393 54.143 L 197.393 56.122 C 197.393 56.32 197.294 56.419 196.997 56.419 L 192.147 56.419 L 192.147 58.993 L 197.987 58.993 C 198.284 58.993 198.383 59.191 198.383 59.29 L 198.383 61.368 C 198.383 61.566 198.185 61.665 197.987 61.665 L 189.573 61.665 C 189.375 61.665 189.177 61.467 189.177 61.368 L 189.177 48.699 C 189.177 48.501 189.375 48.402 189.573 48.402 L 197.987 48.402 C 198.284 48.402 198.383 48.6 198.383 48.699 L 198.383 50.777 C 198.383 50.975 198.185 51.074 197.987 51.074 L 192.147 51.074 L 192.147 51.173 Z " fill="rgb(255,255,255)"/><path d=" M 212.933 55.132 L 218.08 61.269 C 218.278 61.566 218.08 61.764 217.783 61.764 L 215.011 61.764 C 214.912 61.764 214.714 61.665 214.714 61.665 L 211.052 57.112 L 210.854 57.31 L 210.854 57.31 C 210.656 57.508 210.458 57.805 210.26 58.003 L 210.26 61.467 C 210.26 61.665 210.062 61.764 209.864 61.764 L 207.687 61.764 C 207.39 61.764 207.291 61.566 207.291 61.467 L 207.291 48.6 C 207.291 48.402 207.489 48.204 207.687 48.204 L 209.864 48.204 C 210.062 48.204 210.26 48.402 210.26 48.6 L 210.26 53.945 C 211.745 52.064 213.329 50.183 214.813 48.402 C 214.813 48.402 215.11 48.303 215.11 48.303 L 217.783 48.303 C 218.179 48.303 218.278 48.6 218.08 48.798 L 212.933 55.132 Z " fill="rgb(255,255,255)"/><path d=" M 225.899 60.18 L 222.039 60.18 L 221.544 61.467 L 221.544 61.467 C 221.544 61.566 221.346 61.665 221.148 61.665 L 218.872 61.665 C 218.575 61.665 218.377 61.467 218.476 61.17 C 220.158 56.914 221.94 52.262 223.623 48.105 C 223.722 47.808 224.217 47.808 224.415 48.105 L 229.562 61.17 C 229.661 61.368 229.463 61.665 229.166 61.665 L 226.79 61.665 C 226.592 61.665 226.493 61.566 226.394 61.467 L 226.394 61.467 L 225.899 60.18 Z  M 222.831 57.904 L 225.107 57.904 L 224.415 55.924 C 224.217 55.33 224.019 54.737 223.92 54.044 C 223.821 54.737 223.623 55.33 223.425 55.924 L 222.831 57.904 Z " fill="rgb(255,255,255)"/><path d=" M 240.647 48.402 C 240.845 48.402 241.043 48.6 241.043 48.699 L 241.043 61.368 C 241.043 61.566 240.845 61.665 240.647 61.665 L 238.569 61.665 C 238.371 61.665 238.173 61.467 238.173 61.368 L 238.173 56.32 L 233.719 56.32 L 233.719 61.368 C 233.719 61.566 233.521 61.665 233.323 61.665 L 231.145 61.665 C 230.947 61.665 230.749 61.467 230.749 61.368 L 230.749 48.699 C 230.749 48.501 230.947 48.402 231.145 48.402 L 233.224 48.402 C 233.422 48.402 233.62 48.6 233.62 48.699 L 233.62 53.549 L 238.074 53.549 L 238.074 48.699 C 238.074 48.501 238.272 48.402 238.47 48.402 L 240.647 48.402 Z " fill="rgb(255,255,255)"/><path d=" M 244.013 57.409 L 244.013 48.897 C 244.013 48.699 244.211 48.501 244.409 48.501 L 246.487 48.501 C 246.685 48.501 246.883 48.699 246.883 48.897 L 246.883 57.409 C 247.081 58.498 247.972 59.191 249.061 59.191 C 250.15 59.191 251.238 58.597 251.238 57.409 L 251.238 48.897 C 251.238 48.699 251.436 48.501 251.634 48.501 L 253.713 48.501 C 253.911 48.501 254.109 48.699 254.109 48.897 L 254.109 57.409 C 254.109 60.279 251.931 61.962 248.962 61.962 C 246.289 61.962 244.013 60.18 244.013 57.409 Z " fill="rgb(255,255,255)"/><path d=" M 257.078 48.699 C 257.078 48.501 257.276 48.402 257.474 48.402 L 259.553 48.402 C 259.85 48.402 259.949 48.6 259.949 48.699 L 259.949 61.368 C 259.949 61.566 259.751 61.665 259.553 61.665 L 257.474 61.665 C 257.276 61.665 257.078 61.467 257.078 61.368 L 257.078 48.699 Z " fill="rgb(255,255,255)"/></g><g id="null"><path d=" M 226.592 44.838 C 226.691 44.838 226.691 44.937 226.691 45.135 L 226.691 46.818 C 226.691 47.016 226.592 47.115 226.592 47.115 L 221.247 47.115 C 221.148 47.115 221.148 47.016 221.148 46.818 L 221.148 45.135 C 221.148 44.937 221.247 44.838 221.247 44.838 L 226.592 44.838 Z " fill="rgb(255,255,255)"/></g></g></svg>