<?xml version="1.0" encoding="utf-8"?>
<!-- Generator: Adobe Illustrator 21.1.0, SVG Export Plug-In . SVG Version: 6.00 Build 0)  -->
<svg version="1.1" id="Layer_1" xmlns="http://www.w3.org/2000/svg" xmlns:xlink="http://www.w3.org/1999/xlink" x="0px" y="0px"
	 viewBox="0 0 309.1 73.2" style="enable-background:new 0 0 309.1 73.2;" xml:space="preserve">
<style type="text/css">
	.st0{opacity:0.99;fill:#FFFFFF;}
	.st1{fill:#FFFFFF;}
	.st2{fill:#F7941D;}
	.st3{fill:#00A651;}
	.st4{fill:#00AEEF;}
	.st5{fill:#7F53A2;}
	.st6{fill:#2E3192;}
	.st7{fill:#662D91;}
	.st8{fill:#F15A29;}
	.st9{fill:#ED1C24;}
	.st10{fill:#FFF200;}
</style>
<path d="M73.1,21v10.2c0,2,0.8,3,2.4,3c1.6,0,2.4-1,2.4-2.9V21c0-1,0-1.6,0.1-1.8c0.1-0.5,0.4-1.1,0.8-1.6c0.9-1.1,2-1.6,3.3-1.6
	c1.4,0,2.5,0.5,3.4,1.6c0.7,0.8,1,2.2,1,4.1v9.2c0,3.4-0.9,6.1-2.7,8.2c-2.2,2.6-5,3.8-8.2,3.8c-2,0-3.9-0.5-5.6-1.6
	c-2.2-1.4-3.8-3.3-4.7-5.8c-0.4-1.2-0.6-2.7-0.6-4.6v-9.2c0-1.1,0-1.8,0.1-2.1c0.1-0.7,0.4-1.3,0.8-1.9c0.9-1.1,2-1.7,3.4-1.7
	c1.2,0,2.3,0.5,3.1,1.4C72.7,18.1,73.1,19.3,73.1,21z"/>
<path d="M94.4,24.1h-2.3c-1.3,0-2.3-0.3-3.1-1c-0.9-0.7-1.3-1.7-1.3-3c0-0.7,0.2-1.4,0.6-2.1c0.4-0.7,0.9-1.2,1.6-1.4
	c0.7-0.3,2.2-0.4,4.7-0.4h8.6c2.1,0,3.5,0.1,4.1,0.4c0.7,0.3,1.2,0.8,1.7,1.4c0.4,0.7,0.6,1.4,0.6,2.1c0,1.2-0.5,2.2-1.4,3.1
	c-0.7,0.6-1.8,0.9-3.3,0.9h-2v13c0,1.4-0.2,2.5-0.7,3.3c-0.8,1.3-2,1.9-3.5,1.9c-1.5,0-2.7-0.6-3.5-1.8c-0.5-0.7-0.8-1.9-0.8-3.4
	V24.1z"/>
<path d="M119.8,34.1h3.9c1.6,0,2.8,0.3,3.6,1c0.9,0.8,1.4,1.8,1.4,3c0,1.3-0.5,2.3-1.4,3.1c-0.7,0.6-1.9,0.9-3.6,0.9h-6.7
	c-1.6,0-2.7-0.1-3.2-0.4c-1.1-0.5-1.9-1.2-2.3-2.3c-0.2-0.7-0.3-1.8-0.3-3.4V21.9c0-1.2,0-2,0.1-2.4c0.1-0.8,0.5-1.5,1-2.1
	c0.6-0.6,1.4-1.1,2.3-1.2c0.4-0.1,1.3-0.1,2.7-0.1h5.1c1.4,0,2.2,0,2.4,0c0.9,0.1,1.7,0.4,2.2,0.8c1,0.8,1.6,1.8,1.6,3.1
	c0,1.4-0.5,2.4-1.4,3.1c-0.8,0.6-1.9,1-3.3,1h-4.2v1.8h3.4c1,0,1.8,0.3,2.5,0.8c0.7,0.6,1,1.3,1,2.3c0,2.1-1.3,3.1-3.8,3.1h-3.1
	V34.1z"/>
<path d="M148.4,32.1l2,3.2c0.6,0.9,0.8,1.8,0.8,2.8c0,1.2-0.4,2.2-1.2,3c-0.8,0.8-1.9,1.2-3.1,1.2c-1.5,0-2.7-0.7-3.5-2l-3.6-5.9V38
	c0,1.2-0.4,2.2-1.2,3.1c-0.8,0.8-1.8,1.3-3,1.3c-1.5,0-2.6-0.5-3.4-1.6c-0.7-0.9-1-2.1-1-3.7v-16c0-3.3,1.8-4.9,5.3-4.9h5.4
	c1.8,0,3.5,0.5,5,1.6c1.5,1,2.7,2.4,3.4,4c0.5,1.2,0.8,2.5,0.8,3.8C151.2,27.8,150.2,30,148.4,32.1z"/>
<path d="M157.3,32.3c1,0,2,0.4,3,1.3c1.3,1.1,2.3,1.6,2.8,1.6c0.7,0,1.1-0.4,1.1-1.1c0-0.4-0.2-0.8-0.6-1.1
	c-0.2-0.2-1.5-0.6-3.8-1.5c-3.8-1.3-5.7-3.8-5.7-7.5c0-2.7,1-4.9,3-6.5c1.8-1.4,3.9-2.1,6.6-2.1c2.2,0,4.2,0.5,5.9,1.6
	c1.7,1.1,2.5,2.5,2.5,4.1c0,1-0.3,1.9-0.9,2.5c-0.6,0.7-1.4,1-2.4,1c-1.1,0-2.2-0.5-3.5-1.5c-0.8-0.6-1.4-0.9-1.8-0.9
	c-0.7,0-1,0.3-1,1c0,0.6,0.9,1.2,2.6,1.8c2.4,0.7,4.2,1.7,5.5,2.7c1.7,1.4,2.6,3.5,2.6,6.1c0,2.8-1,5.1-2.9,6.7
	c-1.8,1.5-4.2,2.2-7.1,2.2c-2.9,0-5.3-0.8-7.2-2.3c-1.5-1.2-2.3-2.7-2.3-4.3c0-1.1,0.4-2,1.1-2.8C155.2,32.7,156.2,32.3,157.3,32.3z
	"/>
<path d="M184.3,34.8v2.5c0,1.4-0.3,2.6-1,3.5c-0.8,1-1.8,1.5-3.2,1.5c-1.6,0-2.8-0.7-3.6-2c-0.4-0.6-0.6-1.3-0.7-2
	c0-0.3-0.1-1-0.1-2.1V21.1c0-1.6,0.4-2.9,1.2-3.7c0.9-0.9,2-1.3,3.5-1.3h3.6c2.3,0,4,0.2,5,0.5c2,0.6,3.6,1.7,4.8,3.4
	c1.2,1.6,1.8,3.5,1.8,5.5c0,1.9-0.6,3.7-1.7,5.3c-1.9,2.7-4.6,4-8.2,4H184.3z"/>
<path d="M203.2,38.7c-0.4,1-0.8,1.7-1.3,2.2c-0.9,0.9-1.9,1.4-3.1,1.4c-1.5,0-2.7-0.6-3.5-1.8c-0.5-0.7-0.7-1.5-0.7-2.4
	c0-0.7,0.2-1.5,0.5-2.3l8.1-17.3c0.8-1.7,2.1-2.5,3.9-2.5c1.9,0,3.2,0.9,4,2.6l8.2,17.4c0.3,0.7,0.5,1.4,0.5,2.1c0,1-0.3,1.9-1,2.7
	c-0.9,1-2,1.5-3.3,1.5c-1.1,0-2-0.3-2.8-1c-0.5-0.5-1.1-1.4-1.6-2.5H203.2z"/>
<path d="M233.5,15.4c3.2,0,6.1,1,8.7,3.2c2.1,1.7,3.1,3.4,3.1,5.2c0,1.5-0.6,2.7-1.9,3.5c-0.7,0.5-1.5,0.7-2.4,0.7
	c-0.7,0-1.4-0.2-2-0.5c-0.3-0.1-0.9-0.8-2-1.9c-1-1.1-2.2-1.6-3.7-1.6c-1.4,0-2.6,0.5-3.6,1.5c-1,1-1.4,2.2-1.4,3.6
	c0,1.4,0.5,2.6,1.4,3.6c1,1,2.1,1.5,3.6,1.5c1.2,0,2.3-0.4,3.3-1.2c0.6-0.6,1.2-1.2,1.8-1.8c0.7-0.6,1.5-0.9,2.5-0.9
	c1.2,0,2.2,0.4,3,1.2c0.9,0.8,1.3,1.8,1.3,3c0,1.6-0.9,3.2-2.8,4.8c-2.6,2.3-5.6,3.4-9.1,3.4c-2.1,0-4.1-0.5-6-1.4
	c-2.4-1.1-4.3-2.8-5.7-5c-1.4-2.2-2.1-4.6-2.1-7.3c0-3.9,1.5-7.3,4.4-10.1C226.7,16.7,229.8,15.4,233.5,15.4z"/>
<path d="M256.3,34.1h3.9c1.6,0,2.8,0.3,3.6,1c0.9,0.8,1.4,1.8,1.4,3c0,1.3-0.5,2.3-1.4,3.1c-0.7,0.6-1.9,0.9-3.6,0.9h-6.7
	c-1.6,0-2.7-0.1-3.2-0.4c-1.1-0.5-1.9-1.2-2.3-2.3c-0.2-0.7-0.3-1.8-0.3-3.4V21.9c0-1.2,0-2,0.1-2.4c0.1-0.8,0.5-1.5,1-2.1
	c0.6-0.6,1.4-1.1,2.3-1.2c0.4-0.1,1.3-0.1,2.7-0.1h5.1c1.4,0,2.2,0,2.4,0c0.9,0.1,1.7,0.4,2.2,0.8c1,0.8,1.6,1.8,1.6,3.1
	c0,1.4-0.5,2.4-1.4,3.1c-0.8,0.6-1.9,1-3.3,1h-4.2v1.8h3.4c1,0,1.8,0.3,2.5,0.8c0.7,0.6,1,1.3,1,2.3c0,2.1-1.3,3.1-3.8,3.1h-3.1
	V34.1z"/>
<path d="M270.9,32.3c1,0,2,0.4,3,1.3c1.3,1.1,2.3,1.6,2.8,1.6c0.7,0,1.1-0.4,1.1-1.1c0-0.4-0.2-0.8-0.6-1.1
	c-0.2-0.2-1.5-0.6-3.8-1.5c-3.8-1.3-5.7-3.8-5.7-7.5c0-2.7,1-4.9,3-6.5c1.8-1.4,3.9-2.1,6.6-2.1c2.2,0,4.2,0.5,5.9,1.6
	c1.7,1.1,2.5,2.5,2.5,4.1c0,1-0.3,1.9-0.9,2.5c-0.6,0.7-1.4,1-2.4,1c-1.1,0-2.2-0.5-3.5-1.5c-0.8-0.6-1.4-0.9-1.8-0.9
	c-0.7,0-1,0.3-1,1c0,0.6,0.9,1.2,2.6,1.8c2.4,0.7,4.2,1.7,5.5,2.7c1.7,1.4,2.6,3.5,2.6,6.1c0,2.8-1,5.1-2.9,6.7
	c-1.8,1.5-4.2,2.2-7.1,2.2c-2.9,0-5.3-0.8-7.2-2.3c-1.5-1.2-2.3-2.7-2.3-4.3c0-1.1,0.4-2,1.1-2.8C268.8,32.7,269.8,32.3,270.9,32.3z
	"/>
<path d="M58.7,17.4c-2-3.8-4.8-6.9-8.5-9.2c-3.7-2.3-7.8-3.4-12.2-3.3c-4.6,0.1-8.7,1.3-12.3,3.7c-3.7,2.4-6.5,5.7-8.4,9.8
	c-1.4,3-2,6.1-2,9.3c0,3.9,0.9,7.4,2.5,10.6c1.9,3.8,4.8,6.9,8.5,9.1c3.7,2.3,7.7,3.4,12,3.3c4.4,0,8.4-1.2,12-3.5
	c3.4-2.1,6.1-5,8-8.5c1.9-3.5,2.9-7.3,2.8-11.3C61.2,23.9,60.3,20.6,58.7,17.4z M25.6,24.9L25.1,22l-2.7-1.2l2.6-1.4l0.3-2.9l2.1,2
	l2.9-0.6L29,20.6l1.5,2.5l-2.9-0.4L25.6,24.9z M33.4,44.8l-2,2.2l-0.5-2.9l-2.7-1.2l2.6-1.4l0.3-2.9l2.1,2l2.9-0.6l-1.3,2.6l1.5,2.5
	L33.4,44.8z M45.1,15.4l-2,2.2l-0.5-2.9L40,13.5l2.6-1.4l0.3-2.9l2.1,2l2.9-0.6l-1.3,2.6l1.5,2.5L45.1,15.4z M53.2,33.1l-2,2.2
	l-0.5-2.9L48,31.2l2.6-1.4l0.3-2.9l2.1,2l2.9-0.6L54.6,31l1.5,2.5L53.2,33.1z"/>
<g>
	<g>
		<path d="M88.5,50.7c0,0.2-0.2,0.3-0.4,0.3h-2.3v10.7c0,0.2-0.2,0.3-0.4,0.3h-2.1c-0.2,0-0.4-0.2-0.4-0.3V51h-2.3
			c-0.2,0-0.4-0.2-0.4-0.3v-2c0-0.2,0.2-0.4,0.4-0.4h7.6c0.3,0,0.4,0.2,0.4,0.4V50.7z"/>
		<path d="M92.9,51.3v2.7h4.9c0.3,0,0.4,0.2,0.4,0.3v2c0,0.2-0.1,0.3-0.4,0.3h-4.9v2.6h5.9c0.3,0,0.4,0.2,0.4,0.3v2.1
			c0,0.2-0.2,0.3-0.4,0.3h-8.5c-0.2,0-0.4-0.2-0.4-0.3V48.8c0-0.2,0.2-0.3,0.4-0.3h8.5c0.3,0,0.4,0.2,0.4,0.3v2.1
			c0,0.2-0.2,0.3-0.4,0.3H92.9z"/>
		<path d="M113.8,55.3l5.2,6.2c0.2,0.3,0,0.5-0.3,0.5h-2.8c-0.1,0-0.3-0.1-0.3-0.1l-3.7-4.6l-0.2,0.2v0c-0.2,0.2-0.4,0.5-0.6,0.7
			v3.5c0,0.2-0.2,0.3-0.4,0.3h-2.2c-0.3,0-0.4-0.2-0.4-0.3v-13c0-0.2,0.2-0.4,0.4-0.4h2.2c0.2,0,0.4,0.2,0.4,0.4v5.4
			c1.5-1.9,3.1-3.8,4.6-5.6c0,0,0.3-0.1,0.3-0.1h2.7c0.4,0,0.5,0.3,0.3,0.5L113.8,55.3z"/>
		<path d="M123.7,51.3v2.7h4.9c0.3,0,0.4,0.2,0.4,0.3v2c0,0.2-0.1,0.3-0.4,0.3h-4.9v2.6h5.9c0.3,0,0.4,0.2,0.4,0.3v2.1
			c0,0.2-0.2,0.3-0.4,0.3h-8.5c-0.2,0-0.4-0.2-0.4-0.3V48.8c0-0.2,0.2-0.3,0.4-0.3h8.5c0.3,0,0.4,0.2,0.4,0.3v2.1
			c0,0.2-0.2,0.3-0.4,0.3H123.7z"/>
		<path d="M139.3,50.9c0,0.2-0.2,0.3-0.4,0.3h-2.3v10.4c0,0.2-0.1,0.3-0.4,0.3h-2.1c-0.3,0-0.4-0.2-0.4-0.3V51.2h-2.3
			c-0.2,0-0.4-0.1-0.4-0.3V49c0-0.2,0.2-0.4,0.4-0.4h7.4c0.3,0,0.4,0.2,0.4,0.4V50.9z"/>
		<path d="M143.8,51.3v2.7h4.9c0.3,0,0.4,0.2,0.4,0.3v2c0,0.2-0.1,0.3-0.4,0.3h-4.9v2.6h5.9c0.3,0,0.4,0.2,0.4,0.3v2.1
			c0,0.2-0.2,0.3-0.4,0.3h-8.5c-0.2,0-0.4-0.2-0.4-0.3V48.8c0-0.2,0.2-0.3,0.4-0.3h8.5c0.3,0,0.4,0.2,0.4,0.3v2.1
			c0,0.2-0.2,0.3-0.4,0.3H143.8z"/>
		<path d="M172.1,55.2c0,3.4-2.3,6.9-6.7,6.9c-4.5,0-6.7-3.5-6.7-6.9c0-3.4,2.2-6.9,6.7-6.9C169.8,48.3,172.1,51.8,172.1,55.2z
			 M169.1,55.3c0-2.1-1.3-4.2-3.7-4.2c-2.5,0-3.7,2.1-3.7,4.2c0,2.1,1.2,4.2,3.7,4.2C167.8,59.4,169.1,57.4,169.1,55.3z"/>
		<path d="M188.6,50.7c0,0.2-0.2,0.3-0.4,0.3h-2.3v10.7c0,0.2-0.2,0.3-0.4,0.3h-2.1c-0.2,0-0.4-0.2-0.4-0.3V51h-2.3
			c-0.2,0-0.4-0.2-0.4-0.3v-2c0-0.2,0.2-0.4,0.4-0.4h7.6c0.3,0,0.4,0.2,0.4,0.4V50.7z"/>
		<path d="M193,51.3v2.7h4.9c0.3,0,0.4,0.2,0.4,0.3v2c0,0.2-0.1,0.3-0.4,0.3H193v2.6h5.9c0.3,0,0.4,0.2,0.4,0.3v2.1
			c0,0.2-0.2,0.3-0.4,0.3h-8.5c-0.2,0-0.4-0.2-0.4-0.3V48.8c0-0.2,0.2-0.3,0.4-0.3h8.5c0.3,0,0.4,0.2,0.4,0.3v2.1
			c0,0.2-0.2,0.3-0.4,0.3H193z"/>
		<path d="M214,55.3l5.2,6.2c0.2,0.3,0,0.5-0.3,0.5H216c-0.1,0-0.3-0.1-0.3-0.1l-3.7-4.6l-0.2,0.2v0c-0.2,0.2-0.4,0.5-0.6,0.7v3.5
			c0,0.2-0.2,0.3-0.4,0.3h-2.2c-0.3,0-0.4-0.2-0.4-0.3v-13c0-0.2,0.2-0.4,0.4-0.4h2.2c0.2,0,0.4,0.2,0.4,0.4v5.4
			c1.5-1.9,3.1-3.8,4.6-5.6c0,0,0.3-0.1,0.3-0.1h2.7c0.4,0,0.5,0.3,0.3,0.5L214,55.3z"/>
		<path d="M227,60.4h-3.9l-0.5,1.3v0c0,0.1-0.2,0.2-0.4,0.2h-2.3c-0.3,0-0.5-0.2-0.4-0.5c1.7-4.3,3.5-9,5.2-13.2
			c0.1-0.3,0.6-0.3,0.8,0l5.2,13.2c0.1,0.2-0.1,0.5-0.4,0.5h-2.4c-0.2,0-0.3-0.1-0.4-0.2v0L227,60.4z M223.9,58.1h2.3l-0.7-2
			c-0.2-0.6-0.4-1.2-0.5-1.9c-0.1,0.7-0.3,1.3-0.5,1.9L223.9,58.1z"/>
		<path d="M241.9,48.5c0.2,0,0.4,0.2,0.4,0.3v12.8c0,0.2-0.2,0.3-0.4,0.3h-2.1c-0.2,0-0.4-0.2-0.4-0.3v-5.1h-4.5v5.1
			c0,0.2-0.2,0.3-0.4,0.3h-2.1c-0.2,0-0.4-0.2-0.4-0.3V48.8c0-0.2,0.2-0.3,0.4-0.3h2.1c0.2,0,0.4,0.2,0.4,0.3v4.9h4.5v-4.9
			c0-0.2,0.2-0.3,0.4-0.3H241.9z"/>
		<path d="M245.3,57.6V49c0-0.2,0.2-0.4,0.4-0.4h2.1c0.2,0,0.4,0.2,0.4,0.4v8.6c0.2,1.1,1.1,1.8,2.2,1.8c1.1,0,2.2-0.6,2.2-1.8V49
			c0-0.2,0.2-0.4,0.4-0.4h2.1c0.2,0,0.4,0.2,0.4,0.4v8.6c0,2.9-2.2,4.6-5.2,4.6C247.6,62.2,245.3,60.4,245.3,57.6z"/>
		<path d="M258.5,48.8c0-0.2,0.2-0.3,0.4-0.3h2.1c0.3,0,0.4,0.2,0.4,0.3v12.8c0,0.2-0.2,0.3-0.4,0.3H259c-0.2,0-0.4-0.2-0.4-0.3
			V48.8z"/>
	</g>
	<g>
		<path d="M227.8,44.9c0.1,0,0.1,0.1,0.1,0.3v1.7c0,0.2-0.1,0.3-0.1,0.3h-5.4c-0.1,0-0.1-0.1-0.1-0.3v-1.7c0-0.2,0.1-0.3,0.1-0.3
			H227.8z"/>
	</g>
</g>
</svg>
