<?xml version="1.0" encoding="utf-8"?>
<!-- Generator: Adobe Illustrator 21.1.0, SVG Export Plug-In . SVG Version: 6.00 Build 0)  -->
<svg version="1.1" id="Layer_1" xmlns="http://www.w3.org/2000/svg" xmlns:xlink="http://www.w3.org/1999/xlink" x="0px" y="0px"
	 viewBox="0 0 309.1 68.2" style="enable-background:new 0 0 309.1 68.2;" xml:space="preserve">
<style type="text/css">
	.st0{opacity:0.99;fill:#FFFFFF;}
	.st1{fill:#FFFFFF;}
	.st2{fill:#F7941D;}
	.st3{fill:#00A651;}
	.st4{fill:#00AEEF;}
	.st5{fill:#7F53A2;}
	.st6{fill:#2E3192;}
	.st7{fill:#662D91;}
	.st8{fill:#F15A29;}
	.st9{fill:#ED1C24;}
	.st10{fill:#FFF200;}
</style>
<path class="st6" d="M77.7,19.9v10.2c0,2,0.8,3,2.4,3c1.6,0,2.4-1,2.4-2.9V19.9c0-1,0-1.6,0.1-1.8c0.1-0.5,0.4-1.1,0.8-1.6
	c0.9-1.1,2-1.6,3.3-1.6c1.4,0,2.5,0.5,3.4,1.6c0.7,0.8,1,2.2,1,4.1v9.2c0,3.4-0.9,6.1-2.7,8.2c-2.2,2.6-5,3.8-8.2,3.8
	c-2,0-3.9-0.5-5.6-1.6c-2.2-1.4-3.8-3.3-4.7-5.8c-0.4-1.2-0.6-2.7-0.6-4.6v-9.2c0-1.1,0-1.8,0.1-2.1c0.1-0.7,0.4-1.3,0.8-1.9
	c0.9-1.1,2-1.7,3.4-1.7c1.2,0,2.3,0.5,3.1,1.4C77.3,16.9,77.7,18.2,77.7,19.9z"/>
<path class="st6" d="M99,23h-2.3c-1.3,0-2.3-0.3-3.1-1c-0.9-0.7-1.3-1.7-1.3-3c0-0.7,0.2-1.4,0.6-2.1c0.4-0.7,0.9-1.2,1.6-1.4
	c0.7-0.3,2.2-0.4,4.7-0.4h8.6c2.1,0,3.5,0.1,4.1,0.4c0.7,0.3,1.2,0.8,1.7,1.4c0.4,0.7,0.6,1.4,0.6,2.1c0,1.2-0.5,2.2-1.4,3.1
	c-0.7,0.6-1.8,0.9-3.3,0.9h-2v13c0,1.4-0.2,2.5-0.7,3.3c-0.8,1.3-2,1.9-3.5,1.9c-1.5,0-2.7-0.6-3.5-1.8C99.3,38.6,99,37.5,99,36V23z
	"/>
<path class="st6" d="M124.4,33h3.9c1.6,0,2.8,0.3,3.6,1c0.9,0.8,1.4,1.8,1.4,3c0,1.3-0.5,2.3-1.4,3.1c-0.7,0.6-1.9,0.9-3.6,0.9h-6.7
	c-1.6,0-2.7-0.1-3.2-0.4c-1.1-0.5-1.9-1.2-2.3-2.3c-0.2-0.7-0.3-1.8-0.3-3.4V20.8c0-1.2,0-2,0.1-2.4c0.1-0.8,0.5-1.5,1-2.1
	c0.6-0.6,1.4-1.1,2.3-1.2c0.4-0.1,1.3-0.1,2.7-0.1h5.1c1.4,0,2.2,0,2.4,0c0.9,0.1,1.7,0.4,2.2,0.8c1,0.8,1.6,1.8,1.6,3.1
	c0,1.4-0.5,2.4-1.4,3.1c-0.8,0.6-1.9,1-3.3,1h-4.2v1.8h3.4c1,0,1.8,0.3,2.5,0.8c0.7,0.6,1,1.3,1,2.3c0,2.1-1.3,3.1-3.8,3.1h-3.1V33z
	"/>
<path class="st6" d="M153,31l2,3.2c0.6,0.9,0.8,1.8,0.8,2.8c0,1.2-0.4,2.2-1.2,3c-0.8,0.8-1.9,1.2-3.1,1.2c-1.5,0-2.7-0.7-3.5-2
	l-3.6-5.9v3.5c0,1.2-0.4,2.2-1.2,3.1c-0.8,0.8-1.8,1.3-3,1.3c-1.5,0-2.6-0.5-3.4-1.6c-0.7-0.9-1-2.1-1-3.7v-16
	c0-3.3,1.8-4.9,5.3-4.9h5.4c1.8,0,3.5,0.5,5,1.6c1.5,1,2.7,2.4,3.4,4c0.5,1.2,0.8,2.5,0.8,3.8C155.8,26.7,154.8,28.9,153,31z"/>
<path class="st6" d="M161.8,31.2c1,0,2,0.4,3,1.3c1.3,1.1,2.3,1.6,2.8,1.6c0.7,0,1.1-0.4,1.1-1.1c0-0.4-0.2-0.8-0.6-1.1
	c-0.2-0.2-1.5-0.6-3.8-1.5c-3.8-1.3-5.7-3.8-5.7-7.5c0-2.7,1-4.9,3-6.5c1.8-1.4,3.9-2.1,6.6-2.1c2.2,0,4.2,0.5,5.9,1.6
	c1.7,1.1,2.5,2.5,2.5,4.1c0,1-0.3,1.9-0.9,2.5c-0.6,0.7-1.4,1-2.4,1c-1.1,0-2.2-0.5-3.5-1.5c-0.8-0.6-1.4-0.9-1.8-0.9
	c-0.7,0-1,0.3-1,1c0,0.6,0.9,1.2,2.6,1.8c2.4,0.7,4.2,1.7,5.5,2.7c1.7,1.4,2.6,3.5,2.6,6.1c0,2.8-1,5.1-2.9,6.7
	c-1.8,1.5-4.2,2.2-7.1,2.2c-2.9,0-5.3-0.8-7.2-2.3c-1.5-1.2-2.3-2.7-2.3-4.3c0-1.1,0.4-2,1.1-2.8C159.8,31.6,160.7,31.2,161.8,31.2z
	"/>
<path class="st6" d="M188.9,33.7v2.5c0,1.4-0.3,2.6-1,3.5c-0.8,1-1.8,1.5-3.2,1.5c-1.6,0-2.8-0.7-3.6-2c-0.4-0.6-0.6-1.3-0.7-2
	c0-0.3-0.1-1-0.1-2.1V19.9c0-1.6,0.4-2.9,1.2-3.7c0.9-0.9,2-1.3,3.5-1.3h3.6c2.3,0,4,0.2,5,0.5c2,0.6,3.6,1.7,4.8,3.4
	c1.2,1.6,1.8,3.5,1.8,5.5c0,1.9-0.6,3.7-1.7,5.3c-1.9,2.7-4.6,4-8.2,4H188.9z"/>
<path class="st6" d="M207.7,37.6c-0.4,1-0.8,1.7-1.3,2.2c-0.9,0.9-1.9,1.4-3.1,1.4c-1.5,0-2.7-0.6-3.5-1.8c-0.5-0.7-0.7-1.5-0.7-2.4
	c0-0.7,0.2-1.5,0.5-2.3l8.1-17.3c0.8-1.7,2.1-2.5,3.9-2.5c1.9,0,3.2,0.9,4,2.6l8.2,17.4c0.3,0.7,0.5,1.4,0.5,2.1c0,1-0.3,1.9-1,2.7
	c-0.9,1-2,1.5-3.3,1.5c-1.1,0-2-0.3-2.8-1c-0.5-0.5-1.1-1.4-1.6-2.5H207.7z"/>
<path class="st6" d="M238.1,14.3c3.2,0,6.1,1,8.7,3.2c2.1,1.7,3.1,3.4,3.1,5.2c0,1.5-0.6,2.7-1.9,3.5c-0.7,0.5-1.5,0.7-2.4,0.7
	c-0.7,0-1.4-0.2-2-0.5c-0.3-0.1-0.9-0.8-2-1.9c-1-1.1-2.2-1.6-3.7-1.6c-1.4,0-2.6,0.5-3.6,1.5c-1,1-1.4,2.2-1.4,3.6
	c0,1.4,0.5,2.6,1.4,3.6c1,1,2.1,1.5,3.6,1.5c1.2,0,2.3-0.4,3.3-1.2c0.6-0.6,1.2-1.2,1.8-1.8c0.7-0.6,1.5-0.9,2.5-0.9
	c1.2,0,2.2,0.4,3,1.2s1.3,1.8,1.3,3c0,1.6-0.9,3.2-2.8,4.8c-2.6,2.3-5.6,3.4-9.1,3.4c-2.1,0-4.1-0.5-6-1.4c-2.4-1.1-4.3-2.8-5.7-5
	c-1.4-2.2-2.1-4.6-2.1-7.3c0-3.9,1.5-7.3,4.4-10.1C231.2,15.5,234.4,14.3,238.1,14.3z"/>
<path class="st6" d="M260.9,33h3.9c1.6,0,2.8,0.3,3.6,1c0.9,0.8,1.4,1.8,1.4,3c0,1.3-0.5,2.3-1.4,3.1c-0.7,0.6-1.9,0.9-3.6,0.9h-6.7
	c-1.6,0-2.7-0.1-3.2-0.4c-1.1-0.5-1.9-1.2-2.3-2.3c-0.2-0.7-0.3-1.8-0.3-3.4V20.8c0-1.2,0-2,0.1-2.4c0.1-0.8,0.5-1.5,1-2.1
	c0.6-0.6,1.4-1.1,2.3-1.2c0.4-0.1,1.3-0.1,2.7-0.1h5.1c1.4,0,2.2,0,2.4,0c0.9,0.1,1.7,0.4,2.2,0.8c1,0.8,1.6,1.8,1.6,3.1
	c0,1.4-0.5,2.4-1.4,3.1c-0.8,0.6-1.9,1-3.3,1h-4.2v1.8h3.4c1,0,1.8,0.3,2.5,0.8c0.7,0.6,1,1.3,1,2.3c0,2.1-1.3,3.1-3.8,3.1h-3.1V33z
	"/>
<path class="st6" d="M275.4,31.2c1,0,2,0.4,3,1.3c1.3,1.1,2.3,1.6,2.8,1.6c0.7,0,1.1-0.4,1.1-1.1c0-0.4-0.2-0.8-0.6-1.1
	c-0.2-0.2-1.5-0.6-3.8-1.5c-3.8-1.3-5.7-3.8-5.7-7.5c0-2.7,1-4.9,3-6.5c1.8-1.4,3.9-2.1,6.6-2.1c2.2,0,4.2,0.5,5.9,1.6
	c1.7,1.1,2.5,2.5,2.5,4.1c0,1-0.3,1.9-0.9,2.5c-0.6,0.7-1.4,1-2.4,1c-1.1,0-2.2-0.5-3.5-1.5c-0.8-0.6-1.4-0.9-1.8-0.9
	c-0.7,0-1,0.3-1,1c0,0.6,0.9,1.2,2.6,1.8c2.4,0.7,4.2,1.7,5.5,2.7c1.7,1.4,2.6,3.5,2.6,6.1c0,2.8-1,5.1-2.9,6.7
	c-1.8,1.5-4.2,2.2-7.1,2.2c-2.9,0-5.3-0.8-7.2-2.3c-1.5-1.2-2.3-2.7-2.3-4.3c0-1.1,0.4-2,1.1-2.8C273.4,31.6,274.3,31.2,275.4,31.2z
	"/>
<path class="st6" d="M63.3,16.3c-2-3.8-4.8-6.9-8.5-9.2C51,4.7,46.9,3.6,42.5,3.7C38,3.8,33.9,5.1,30.2,7.4
	c-3.7,2.4-6.5,5.7-8.4,9.8c-1.4,3-2,6.1-2,9.3c0,3.9,0.9,7.4,2.5,10.6c1.9,3.8,4.8,6.9,8.5,9.1c3.7,2.3,7.7,3.4,12,3.3
	c4.4,0,8.4-1.2,12-3.5c3.4-2.1,6.1-5,8-8.5c1.9-3.5,2.9-7.3,2.8-11.3C65.7,22.8,64.9,19.4,63.3,16.3z M30.2,23.8l-0.5-2.9L27,19.7
	l2.6-1.4l0.3-2.9l2.1,2l2.9-0.6l-1.3,2.6L35,22l-2.9-0.4L30.2,23.8z M38,43.7l-2,2.2L35.5,43l-2.7-1.2l2.6-1.4l0.3-2.9l2.1,2
	l2.9-0.6l-1.3,2.6l1.5,2.5L38,43.7z M49.7,14.3l-2,2.2l-0.5-2.9l-2.7-1.2l2.6-1.4l0.3-2.9l2.1,2l2.9-0.6l-1.3,2.6l1.5,2.5L49.7,14.3
	z M57.8,32l-2,2.2l-0.5-2.9l-2.7-1.2l2.6-1.4l0.3-2.9l2.1,2l2.9-0.6l-1.3,2.6l1.5,2.5L57.8,32z"/>
<g>
	<g>
		<path class="st7" d="M93.1,49.6c0,0.2-0.2,0.3-0.4,0.3h-2.3v10.7c0,0.2-0.2,0.3-0.4,0.3h-2.1c-0.2,0-0.4-0.2-0.4-0.3V49.9H85
			c-0.2,0-0.4-0.2-0.4-0.3v-2c0-0.2,0.2-0.4,0.4-0.4h7.6c0.3,0,0.4,0.2,0.4,0.4V49.6z"/>
		<path class="st7" d="M97.5,50.1v2.7h4.9c0.3,0,0.4,0.2,0.4,0.3v2c0,0.2-0.1,0.3-0.4,0.3h-4.9v2.6h5.9c0.3,0,0.4,0.2,0.4,0.3v2.1
			c0,0.2-0.2,0.3-0.4,0.3h-8.5c-0.2,0-0.4-0.2-0.4-0.3V47.7c0-0.2,0.2-0.3,0.4-0.3h8.5c0.3,0,0.4,0.2,0.4,0.3v2.1
			c0,0.2-0.2,0.3-0.4,0.3H97.5z"/>
		<path class="st7" d="M118.4,54.2l5.2,6.2c0.2,0.3,0,0.5-0.3,0.5h-2.8c-0.1,0-0.3-0.1-0.3-0.1l-3.7-4.6l-0.2,0.2v0
			c-0.2,0.2-0.4,0.5-0.6,0.7v3.5c0,0.2-0.2,0.3-0.4,0.3h-2.2c-0.3,0-0.4-0.2-0.4-0.3v-13c0-0.2,0.2-0.4,0.4-0.4h2.2
			c0.2,0,0.4,0.2,0.4,0.4V53c1.5-1.9,3.1-3.8,4.6-5.6c0,0,0.3-0.1,0.3-0.1h2.7c0.4,0,0.5,0.3,0.3,0.5L118.4,54.2z"/>
		<path class="st7" d="M128.2,50.1v2.7h4.9c0.3,0,0.4,0.2,0.4,0.3v2c0,0.2-0.1,0.3-0.4,0.3h-4.9v2.6h5.9c0.3,0,0.4,0.2,0.4,0.3v2.1
			c0,0.2-0.2,0.3-0.4,0.3h-8.5c-0.2,0-0.4-0.2-0.4-0.3V47.7c0-0.2,0.2-0.3,0.4-0.3h8.5c0.3,0,0.4,0.2,0.4,0.3v2.1
			c0,0.2-0.2,0.3-0.4,0.3H128.2z"/>
		<path class="st7" d="M143.9,49.8c0,0.2-0.2,0.3-0.4,0.3h-2.3v10.4c0,0.2-0.1,0.3-0.4,0.3h-2.1c-0.3,0-0.4-0.2-0.4-0.3V50.1H136
			c-0.2,0-0.4-0.1-0.4-0.3v-1.9c0-0.2,0.2-0.4,0.4-0.4h7.4c0.3,0,0.4,0.2,0.4,0.4V49.8z"/>
		<path class="st7" d="M148.4,50.1v2.7h4.9c0.3,0,0.4,0.2,0.4,0.3v2c0,0.2-0.1,0.3-0.4,0.3h-4.9v2.6h5.9c0.3,0,0.4,0.2,0.4,0.3v2.1
			c0,0.2-0.2,0.3-0.4,0.3h-8.5c-0.2,0-0.4-0.2-0.4-0.3V47.7c0-0.2,0.2-0.3,0.4-0.3h8.5c0.3,0,0.4,0.2,0.4,0.3v2.1
			c0,0.2-0.2,0.3-0.4,0.3H148.4z"/>
		<path class="st7" d="M176.6,54.1c0,3.4-2.3,6.9-6.7,6.9c-4.5,0-6.7-3.5-6.7-6.9c0-3.4,2.2-6.9,6.7-6.9
			C174.4,47.2,176.6,50.7,176.6,54.1z M173.6,54.2c0-2.1-1.3-4.2-3.7-4.2c-2.5,0-3.7,2.1-3.7,4.2c0,2.1,1.2,4.2,3.7,4.2
			C172.4,58.3,173.6,56.2,173.6,54.2z"/>
		<path class="st7" d="M193.2,49.6c0,0.2-0.2,0.3-0.4,0.3h-2.3v10.7c0,0.2-0.2,0.3-0.4,0.3h-2.1c-0.2,0-0.4-0.2-0.4-0.3V49.9h-2.3
			c-0.2,0-0.4-0.2-0.4-0.3v-2c0-0.2,0.2-0.4,0.4-0.4h7.6c0.3,0,0.4,0.2,0.4,0.4V49.6z"/>
		<path class="st7" d="M197.6,50.1v2.7h4.9c0.3,0,0.4,0.2,0.4,0.3v2c0,0.2-0.1,0.3-0.4,0.3h-4.9v2.6h5.9c0.3,0,0.4,0.2,0.4,0.3v2.1
			c0,0.2-0.2,0.3-0.4,0.3H195c-0.2,0-0.4-0.2-0.4-0.3V47.7c0-0.2,0.2-0.3,0.4-0.3h8.5c0.3,0,0.4,0.2,0.4,0.3v2.1
			c0,0.2-0.2,0.3-0.4,0.3H197.6z"/>
		<path class="st7" d="M218.5,54.2l5.2,6.2c0.2,0.3,0,0.5-0.3,0.5h-2.8c-0.1,0-0.3-0.1-0.3-0.1l-3.7-4.6l-0.2,0.2v0
			c-0.2,0.2-0.4,0.5-0.6,0.7v3.5c0,0.2-0.2,0.3-0.4,0.3h-2.2c-0.3,0-0.4-0.2-0.4-0.3v-13c0-0.2,0.2-0.4,0.4-0.4h2.2
			c0.2,0,0.4,0.2,0.4,0.4V53c1.5-1.9,3.1-3.8,4.6-5.6c0,0,0.3-0.1,0.3-0.1h2.7c0.4,0,0.5,0.3,0.3,0.5L218.5,54.2z"/>
		<path class="st7" d="M231.6,59.3h-3.9l-0.5,1.3v0c0,0.1-0.2,0.2-0.4,0.2h-2.3c-0.3,0-0.5-0.2-0.4-0.5c1.7-4.3,3.5-9,5.2-13.2
			c0.1-0.3,0.6-0.3,0.8,0l5.2,13.2c0.1,0.2-0.1,0.5-0.4,0.5h-2.4c-0.2,0-0.3-0.1-0.4-0.2v0L231.6,59.3z M228.5,57h2.3l-0.7-2
			c-0.2-0.6-0.4-1.2-0.5-1.9c-0.1,0.7-0.3,1.3-0.5,1.9L228.5,57z"/>
		<path class="st7" d="M246.5,47.4c0.2,0,0.4,0.2,0.4,0.3v12.8c0,0.2-0.2,0.3-0.4,0.3h-2.1c-0.2,0-0.4-0.2-0.4-0.3v-5.1h-4.5v5.1
			c0,0.2-0.2,0.3-0.4,0.3H237c-0.2,0-0.4-0.2-0.4-0.3V47.7c0-0.2,0.2-0.3,0.4-0.3h2.1c0.2,0,0.4,0.2,0.4,0.3v4.9h4.5v-4.9
			c0-0.2,0.2-0.3,0.4-0.3H246.5z"/>
		<path class="st7" d="M249.9,56.5v-8.6c0-0.2,0.2-0.4,0.4-0.4h2.1c0.2,0,0.4,0.2,0.4,0.4v8.6c0.2,1.1,1.1,1.8,2.2,1.8
			c1.1,0,2.2-0.6,2.2-1.8v-8.6c0-0.2,0.2-0.4,0.4-0.4h2.1c0.2,0,0.4,0.2,0.4,0.4v8.6c0,2.9-2.2,4.6-5.2,4.6
			C252.2,61.1,249.9,59.3,249.9,56.5z"/>
		<path class="st7" d="M263.1,47.7c0-0.2,0.2-0.3,0.4-0.3h2.1c0.3,0,0.4,0.2,0.4,0.3v12.8c0,0.2-0.2,0.3-0.4,0.3h-2.1
			c-0.2,0-0.4-0.2-0.4-0.3V47.7z"/>
	</g>
	<g>
		<path class="st7" d="M232.3,43.8c0.1,0,0.1,0.1,0.1,0.3v1.7c0,0.2-0.1,0.3-0.1,0.3H227c-0.1,0-0.1-0.1-0.1-0.3v-1.7
			c0-0.2,0.1-0.3,0.1-0.3H232.3z"/>
	</g>
</g>
</svg>
