<?xml version="1.0" encoding="utf-8"?>
<!-- Generator: Adobe Illustrator 21.1.0, SVG Export Plug-In . SVG Version: 6.00 Build 0)  -->
<svg version="1.1" id="Layer_1" xmlns="http://www.w3.org/2000/svg" xmlns:xlink="http://www.w3.org/1999/xlink" x="0px" y="0px"
	 viewBox="0 0 309.1 68.7" style="enable-background:new 0 0 309.1 68.7;" xml:space="preserve">
<style type="text/css">
	.st0{opacity:0.99;fill:#FFFFFF;}
	.st1{fill:#FFFFFF;}
	.st2{fill:#F7941D;}
	.st3{fill:#00A651;}
	.st4{fill:#00AEEF;}
	.st5{fill:#7F53A2;}
	.st6{fill:#2E3192;}
	.st7{fill:#662D91;}
	.st8{fill:#F15A29;}
	.st9{fill:#ED1C24;}
	.st10{fill:#FFF200;}
</style>
<path class="st8" d="M72.7,21.4v10.2c0,2,0.8,3,2.4,3c1.6,0,2.4-1,2.4-2.9V21.4c0-1,0-1.6,0.1-1.8c0.1-0.5,0.4-1.1,0.8-1.6
	c0.9-1.1,2-1.6,3.3-1.6c1.4,0,2.5,0.5,3.4,1.6c0.7,0.8,1,2.2,1,4.1v9.2c0,3.4-0.9,6.1-2.7,8.2c-2.2,2.6-5,3.8-8.2,3.8
	c-2,0-3.9-0.5-5.6-1.6c-2.2-1.4-3.8-3.3-4.7-5.8c-0.4-1.2-0.6-2.7-0.6-4.6V22c0-1.1,0-1.8,0.1-2.1c0.1-0.7,0.4-1.3,0.8-1.9
	c0.9-1.1,2-1.7,3.4-1.7c1.2,0,2.3,0.5,3.1,1.4C72.4,18.4,72.7,19.7,72.7,21.4z"/>
<path class="st3" d="M94.1,24.5h-2.3c-1.3,0-2.3-0.3-3.1-1c-0.9-0.7-1.3-1.7-1.3-3c0-0.7,0.2-1.4,0.6-2.1c0.4-0.7,0.9-1.2,1.6-1.4
	c0.7-0.3,2.2-0.4,4.7-0.4h8.6c2.1,0,3.5,0.1,4.1,0.4c0.7,0.3,1.2,0.8,1.7,1.4c0.4,0.7,0.6,1.4,0.6,2.1c0,1.2-0.5,2.2-1.4,3.1
	c-0.7,0.6-1.8,0.9-3.3,0.9h-2v13c0,1.4-0.2,2.5-0.7,3.3c-0.8,1.3-2,1.9-3.5,1.9c-1.5,0-2.7-0.6-3.5-1.8c-0.5-0.7-0.8-1.9-0.8-3.4
	V24.5z"/>
<path class="st4" d="M119.5,34.5h3.9c1.6,0,2.8,0.3,3.6,1c0.9,0.8,1.4,1.8,1.4,3c0,1.3-0.5,2.3-1.4,3.1c-0.7,0.6-1.9,0.9-3.6,0.9
	h-6.7c-1.6,0-2.7-0.1-3.2-0.4c-1.1-0.5-1.9-1.2-2.3-2.3c-0.2-0.7-0.3-1.8-0.3-3.4V22.3c0-1.2,0-2,0.1-2.4c0.1-0.8,0.5-1.5,1-2.1
	c0.6-0.6,1.4-1.1,2.3-1.2c0.4-0.1,1.3-0.1,2.7-0.1h5.1c1.4,0,2.2,0,2.4,0c0.9,0.1,1.7,0.4,2.2,0.8c1,0.8,1.6,1.8,1.6,3.1
	c0,1.4-0.5,2.4-1.4,3.1c-0.8,0.6-1.9,1-3.3,1h-4.2v1.8h3.4c1,0,1.8,0.3,2.5,0.8c0.7,0.6,1,1.3,1,2.3c0,2.1-1.3,3.1-3.8,3.1h-3.1
	V34.5z"/>
<path class="st7" d="M148,32.5l2,3.2c0.6,0.9,0.8,1.8,0.8,2.8c0,1.2-0.4,2.2-1.2,3c-0.8,0.8-1.9,1.2-3.1,1.2c-1.5,0-2.7-0.7-3.5-2
	l-3.6-5.9v3.5c0,1.2-0.4,2.2-1.2,3.1c-0.8,0.8-1.8,1.3-3,1.3c-1.5,0-2.6-0.5-3.4-1.6c-0.7-0.9-1-2.1-1-3.7v-16
	c0-3.3,1.8-4.9,5.3-4.9h5.4c1.8,0,3.5,0.5,5,1.6c1.5,1,2.7,2.4,3.4,4c0.5,1.2,0.8,2.5,0.8,3.8C150.8,28.2,149.9,30.4,148,32.5z"/>
<path d="M156.9,32.7c1,0,2,0.4,3,1.3c1.3,1.1,2.3,1.6,2.8,1.6c0.7,0,1.1-0.4,1.1-1.1c0-0.4-0.2-0.8-0.6-1.1
	c-0.2-0.2-1.5-0.6-3.8-1.5c-3.8-1.3-5.7-3.8-5.7-7.5c0-2.7,1-4.9,3-6.5c1.8-1.4,3.9-2.1,6.6-2.1c2.2,0,4.2,0.5,5.9,1.6
	c1.7,1.1,2.5,2.5,2.5,4.1c0,1-0.3,1.9-0.9,2.5c-0.6,0.7-1.4,1-2.4,1c-1.1,0-2.2-0.5-3.5-1.5c-0.8-0.6-1.4-0.9-1.8-0.9
	c-0.7,0-1,0.3-1,1c0,0.6,0.9,1.2,2.6,1.8c2.4,0.7,4.2,1.7,5.5,2.7c1.7,1.4,2.6,3.5,2.6,6.1c0,2.8-1,5.1-2.9,6.7
	c-1.8,1.5-4.2,2.2-7.1,2.2c-2.9,0-5.3-0.8-7.2-2.3c-1.5-1.2-2.3-2.7-2.3-4.3c0-1.1,0.4-2,1.1-2.8C154.9,33.1,155.8,32.7,156.9,32.7z
	"/>
<path d="M184,35.2v2.5c0,1.4-0.3,2.6-1,3.5c-0.8,1-1.8,1.5-3.2,1.5c-1.6,0-2.8-0.7-3.6-2c-0.4-0.6-0.6-1.3-0.7-2
	c0-0.3-0.1-1-0.1-2.1V21.5c0-1.6,0.4-2.9,1.2-3.7c0.9-0.9,2-1.3,3.5-1.3h3.6c2.3,0,4,0.2,5,0.5c2,0.6,3.6,1.7,4.8,3.4
	c1.2,1.6,1.8,3.5,1.8,5.5c0,1.9-0.6,3.7-1.7,5.3c-1.9,2.7-4.6,4-8.2,4H184z"/>
<path d="M202.8,39.1c-0.4,1-0.8,1.7-1.3,2.2c-0.9,0.9-1.9,1.4-3.1,1.4c-1.5,0-2.7-0.6-3.5-1.8c-0.5-0.7-0.7-1.5-0.7-2.4
	c0-0.7,0.2-1.5,0.5-2.3l8.1-17.3c0.8-1.7,2.1-2.5,3.9-2.5c1.9,0,3.2,0.9,4,2.6l8.2,17.4c0.3,0.7,0.5,1.4,0.5,2.1c0,1-0.3,1.9-1,2.7
	c-0.9,1-2,1.5-3.3,1.5c-1.1,0-2-0.3-2.8-1c-0.5-0.5-1.1-1.4-1.6-2.5H202.8z"/>
<path d="M233.1,15.8c3.2,0,6.1,1,8.7,3.2c2.1,1.7,3.1,3.4,3.1,5.2c0,1.5-0.6,2.7-1.9,3.5c-0.7,0.5-1.5,0.7-2.4,0.7
	c-0.7,0-1.4-0.2-2-0.5c-0.3-0.1-0.9-0.8-2-1.9c-1-1.1-2.2-1.6-3.7-1.6c-1.4,0-2.6,0.5-3.6,1.5c-1,1-1.4,2.2-1.4,3.6
	c0,1.4,0.5,2.6,1.4,3.6c1,1,2.1,1.5,3.6,1.5c1.2,0,2.3-0.4,3.3-1.2c0.6-0.6,1.2-1.2,1.8-1.8c0.7-0.6,1.5-0.9,2.5-0.9
	c1.2,0,2.2,0.4,3,1.2c0.9,0.8,1.3,1.8,1.3,3c0,1.6-0.9,3.2-2.8,4.8c-2.6,2.3-5.6,3.4-9.1,3.4c-2.1,0-4.1-0.5-6-1.4
	c-2.4-1.1-4.3-2.8-5.7-5c-1.4-2.2-2.1-4.6-2.1-7.3c0-3.9,1.5-7.3,4.4-10.1C226.3,17.1,229.4,15.8,233.1,15.8z"/>
<path d="M256,34.5h3.9c1.6,0,2.8,0.3,3.6,1c0.9,0.8,1.4,1.8,1.4,3c0,1.3-0.5,2.3-1.4,3.1c-0.7,0.6-1.9,0.9-3.6,0.9h-6.7
	c-1.6,0-2.7-0.1-3.2-0.4c-1.1-0.5-1.9-1.2-2.3-2.3c-0.2-0.7-0.3-1.8-0.3-3.4V22.3c0-1.2,0-2,0.1-2.4c0.1-0.8,0.5-1.5,1-2.1
	c0.6-0.6,1.4-1.1,2.3-1.2c0.4-0.1,1.3-0.1,2.7-0.1h5.1c1.4,0,2.2,0,2.4,0c0.9,0.1,1.7,0.4,2.2,0.8c1,0.8,1.6,1.8,1.6,3.1
	c0,1.4-0.5,2.4-1.4,3.1c-0.8,0.6-1.9,1-3.3,1H256v1.8h3.4c1,0,1.8,0.3,2.5,0.8c0.7,0.6,1,1.3,1,2.3c0,2.1-1.3,3.1-3.8,3.1H256V34.5z
	"/>
<path d="M270.5,32.7c1,0,2,0.4,3,1.3c1.3,1.1,2.3,1.6,2.8,1.6c0.7,0,1.1-0.4,1.1-1.1c0-0.4-0.2-0.8-0.6-1.1
	c-0.2-0.2-1.5-0.6-3.8-1.5c-3.8-1.3-5.7-3.8-5.7-7.5c0-2.7,1-4.9,3-6.5c1.8-1.4,3.9-2.1,6.6-2.1c2.2,0,4.2,0.5,5.9,1.6
	c1.7,1.1,2.5,2.5,2.5,4.1c0,1-0.3,1.9-0.9,2.5c-0.6,0.7-1.4,1-2.4,1c-1.1,0-2.2-0.5-3.5-1.5c-0.8-0.6-1.4-0.9-1.8-0.9
	c-0.7,0-1,0.3-1,1c0,0.6,0.9,1.2,2.6,1.8c2.4,0.7,4.2,1.7,5.5,2.7c1.7,1.4,2.6,3.5,2.6,6.1c0,2.8-1,5.1-2.9,6.7
	c-1.8,1.5-4.2,2.2-7.1,2.2c-2.9,0-5.3-0.8-7.2-2.3c-1.5-1.2-2.3-2.7-2.3-4.3c0-1.1,0.4-2,1.1-2.8C268.5,33.1,269.4,32.7,270.5,32.7z
	"/>
<path class="st9" d="M58.4,17.8c-2-3.8-4.8-6.9-8.5-9.2C46.1,6.3,42,5.2,37.6,5.2C33,5.3,28.9,6.6,25.3,9c-3.7,2.4-6.5,5.7-8.4,9.8
	c-1.4,3-2,6.1-2,9.3c0,3.9,0.9,7.4,2.5,10.6c1.9,3.8,4.8,6.9,8.5,9.1c3.7,2.3,7.7,3.4,12,3.3c4.4,0,8.4-1.2,12-3.5
	c3.4-2.1,6.1-5,8-8.5c1.9-3.5,2.9-7.3,2.8-11.3C60.8,24.3,60,21,58.4,17.8z M25.2,25.3l-0.5-2.9L22,21.2l2.6-1.4l0.3-2.9l2.1,2
	l2.9-0.6L28.6,21l1.5,2.5l-2.9-0.4L25.2,25.3z M33.1,45.2l-2,2.2l-0.5-2.9l-2.7-1.2l2.6-1.4l0.3-2.9l2.1,2l2.9-0.6l-1.3,2.6l1.5,2.5
	L33.1,45.2z M44.8,15.8l-2,2.2l-0.5-2.9l-2.7-1.2l2.6-1.4l0.3-2.9l2.1,2l2.9-0.6l-1.3,2.6l1.5,2.5L44.8,15.8z M52.8,33.5l-2,2.2
	l-0.5-2.9l-2.7-1.2l2.6-1.4l0.3-2.9l2.1,2l2.9-0.6l-1.3,2.6l1.5,2.5L52.8,33.5z"/>
<g>
	<g>
		<path d="M88.1,51.1c0,0.2-0.2,0.3-0.4,0.3h-2.3v10.7c0,0.2-0.2,0.3-0.4,0.3h-2.1c-0.2,0-0.4-0.2-0.4-0.3V51.4h-2.3
			c-0.2,0-0.4-0.2-0.4-0.3v-2c0-0.2,0.2-0.4,0.4-0.4h7.6c0.3,0,0.4,0.2,0.4,0.4V51.1z"/>
		<path d="M92.5,51.7v2.7h4.9c0.3,0,0.4,0.2,0.4,0.3v2c0,0.2-0.1,0.3-0.4,0.3h-4.9v2.6h5.9c0.3,0,0.4,0.2,0.4,0.3v2.1
			c0,0.2-0.2,0.3-0.4,0.3H90c-0.2,0-0.4-0.2-0.4-0.3V49.2c0-0.2,0.2-0.3,0.4-0.3h8.5c0.3,0,0.4,0.2,0.4,0.3v2.1
			c0,0.2-0.2,0.3-0.4,0.3H92.5z"/>
		<path d="M113.5,55.7l5.2,6.2c0.2,0.3,0,0.5-0.3,0.5h-2.8c-0.1,0-0.3-0.1-0.3-0.1l-3.7-4.6l-0.2,0.2v0c-0.2,0.2-0.4,0.5-0.6,0.7
			v3.5c0,0.2-0.2,0.3-0.4,0.3h-2.2c-0.3,0-0.4-0.2-0.4-0.3v-13c0-0.2,0.2-0.4,0.4-0.4h2.2c0.2,0,0.4,0.2,0.4,0.4v5.4
			c1.5-1.9,3.1-3.8,4.6-5.6c0,0,0.3-0.1,0.3-0.1h2.7c0.4,0,0.5,0.3,0.3,0.5L113.5,55.7z"/>
		<path d="M123.3,51.7v2.7h4.9c0.3,0,0.4,0.2,0.4,0.3v2c0,0.2-0.1,0.3-0.4,0.3h-4.9v2.6h5.9c0.3,0,0.4,0.2,0.4,0.3v2.1
			c0,0.2-0.2,0.3-0.4,0.3h-8.5c-0.2,0-0.4-0.2-0.4-0.3V49.2c0-0.2,0.2-0.3,0.4-0.3h8.5c0.3,0,0.4,0.2,0.4,0.3v2.1
			c0,0.2-0.2,0.3-0.4,0.3H123.3z"/>
		<path d="M138.9,51.3c0,0.2-0.2,0.3-0.4,0.3h-2.3v10.4c0,0.2-0.1,0.3-0.4,0.3h-2.1c-0.3,0-0.4-0.2-0.4-0.3V51.6h-2.3
			c-0.2,0-0.4-0.1-0.4-0.3v-1.9c0-0.2,0.2-0.4,0.4-0.4h7.4c0.3,0,0.4,0.2,0.4,0.4V51.3z"/>
		<path d="M143.5,51.7v2.7h4.9c0.3,0,0.4,0.2,0.4,0.3v2c0,0.2-0.1,0.3-0.4,0.3h-4.9v2.6h5.9c0.3,0,0.4,0.2,0.4,0.3v2.1
			c0,0.2-0.2,0.3-0.4,0.3H141c-0.2,0-0.4-0.2-0.4-0.3V49.2c0-0.2,0.2-0.3,0.4-0.3h8.5c0.3,0,0.4,0.2,0.4,0.3v2.1
			c0,0.2-0.2,0.3-0.4,0.3H143.5z"/>
		<path d="M171.7,55.6c0,3.4-2.3,6.9-6.7,6.9c-4.5,0-6.7-3.5-6.7-6.9s2.2-6.9,6.7-6.9C169.4,48.7,171.7,52.2,171.7,55.6z
			 M168.7,55.7c0-2.1-1.3-4.2-3.7-4.2c-2.5,0-3.7,2.1-3.7,4.2c0,2.1,1.2,4.2,3.7,4.2C167.5,59.8,168.7,57.8,168.7,55.7z"/>
		<path d="M188.2,51.1c0,0.2-0.2,0.3-0.4,0.3h-2.3v10.7c0,0.2-0.2,0.3-0.4,0.3h-2.1c-0.2,0-0.4-0.2-0.4-0.3V51.4h-2.3
			c-0.2,0-0.4-0.2-0.4-0.3v-2c0-0.2,0.2-0.4,0.4-0.4h7.6c0.3,0,0.4,0.2,0.4,0.4V51.1z"/>
		<path d="M192.6,51.7v2.7h4.9c0.3,0,0.4,0.2,0.4,0.3v2c0,0.2-0.1,0.3-0.4,0.3h-4.9v2.6h5.9c0.3,0,0.4,0.2,0.4,0.3v2.1
			c0,0.2-0.2,0.3-0.4,0.3h-8.5c-0.2,0-0.4-0.2-0.4-0.3V49.2c0-0.2,0.2-0.3,0.4-0.3h8.5c0.3,0,0.4,0.2,0.4,0.3v2.1
			c0,0.2-0.2,0.3-0.4,0.3H192.6z"/>
		<path d="M213.6,55.7l5.2,6.2c0.2,0.3,0,0.5-0.3,0.5h-2.8c-0.1,0-0.3-0.1-0.3-0.1l-3.7-4.6l-0.2,0.2v0c-0.2,0.2-0.4,0.5-0.6,0.7
			v3.5c0,0.2-0.2,0.3-0.4,0.3h-2.2c-0.3,0-0.4-0.2-0.4-0.3v-13c0-0.2,0.2-0.4,0.4-0.4h2.2c0.2,0,0.4,0.2,0.4,0.4v5.4
			c1.5-1.9,3.1-3.8,4.6-5.6c0,0,0.3-0.1,0.3-0.1h2.7c0.4,0,0.5,0.3,0.3,0.5L213.6,55.7z"/>
		<path d="M226.7,60.8h-3.9l-0.5,1.3v0c0,0.1-0.2,0.2-0.4,0.2h-2.3c-0.3,0-0.5-0.2-0.4-0.5c1.7-4.3,3.5-9,5.2-13.2
			c0.1-0.3,0.6-0.3,0.8,0l5.2,13.2c0.1,0.2-0.1,0.5-0.4,0.5h-2.4c-0.2,0-0.3-0.1-0.4-0.2v0L226.7,60.8z M223.6,58.5h2.3l-0.7-2
			c-0.2-0.6-0.4-1.2-0.5-1.9c-0.1,0.7-0.3,1.3-0.5,1.9L223.6,58.5z"/>
		<path d="M241.6,48.9c0.2,0,0.4,0.2,0.4,0.3v12.8c0,0.2-0.2,0.3-0.4,0.3h-2.1c-0.2,0-0.4-0.2-0.4-0.3v-5.1h-4.5v5.1
			c0,0.2-0.2,0.3-0.4,0.3H232c-0.2,0-0.4-0.2-0.4-0.3V49.2c0-0.2,0.2-0.3,0.4-0.3h2.1c0.2,0,0.4,0.2,0.4,0.3v4.9h4.5v-4.9
			c0-0.2,0.2-0.3,0.4-0.3H241.6z"/>
		<path d="M245,58v-8.6c0-0.2,0.2-0.4,0.4-0.4h2.1c0.2,0,0.4,0.2,0.4,0.4v8.6c0.2,1.1,1.1,1.8,2.2,1.8c1.1,0,2.2-0.6,2.2-1.8v-8.6
			c0-0.2,0.2-0.4,0.4-0.4h2.1c0.2,0,0.4,0.2,0.4,0.4V58c0,2.9-2.2,4.6-5.2,4.6C247.3,62.6,245,60.8,245,58z"/>
		<path d="M258.2,49.2c0-0.2,0.2-0.3,0.4-0.3h2.1c0.3,0,0.4,0.2,0.4,0.3v12.8c0,0.2-0.2,0.3-0.4,0.3h-2.1c-0.2,0-0.4-0.2-0.4-0.3
			V49.2z"/>
	</g>
	<g>
		<path d="M227.4,45.3c0.1,0,0.1,0.1,0.1,0.3v1.7c0,0.2-0.1,0.3-0.1,0.3H222c-0.1,0-0.1-0.1-0.1-0.3v-1.7c0-0.2,0.1-0.3,0.1-0.3
			H227.4z"/>
	</g>
</g>
</svg>
